<?xml version="1.0" standalone="no"?>
<!DOCTYPE svg PUBLIC "-//W3C//DTD SVG 20010904//EN"
 "http://www.w3.org/TR/2001/REC-SVG-20010904/DTD/svg10.dtd">
<svg version="1.0" xmlns="http://www.w3.org/2000/svg"
 width="1265.000000pt" height="1441.000000pt" viewBox="0 0 1265.000000 1441.000000"
 preserveAspectRatio="xMidYMid meet">
<metadata>
Created by potrace 1.16, written by Peter Selinger 2001-2019
</metadata>
<g transform="translate(0.000000,1441.000000) scale(0.100000,-0.100000)"
fill="#000000" stroke="none">
<path d="M10345 14404 c-22 -2 -92 -9 -155 -15 -341 -32 -744 -110 -1233 -240
-442 -118 -568 -188 -901 -502 -295 -280 -1418 -1405 -1668 -1672 -266 -284
-556 -602 -575 -632 -20 -30 -9 -71 20 -82 16 -6 139 14 412 69 788 157 1495
281 2105 369 394 57 1086 144 1102 139 6 -2 -45 -71 -113 -153 -881 -1060
-1704 -2130 -2389 -3105 -171 -244 -625 -922 -875 -1307 -54 -83 -103 -147
-123 -160 -18 -12 -65 -29 -105 -37 -40 -9 -200 -43 -357 -77 -725 -154 -1539
-361 -2485 -630 -466 -132 -524 -154 -650 -244 -125 -90 -177 -156 -586 -740
-455 -650 -832 -1218 -1224 -1845 -187 -299 -489 -800 -524 -867 -28 -56 -28
-118 0 -133 29 -16 46 -10 269 85 1094 468 2123 861 3134 1197 340 113 523
179 551 198 45 31 63 56 155 210 136 227 1001 1533 1305 1970 310 444 537 750
569 767 86 45 285 -26 341 -121 32 -56 42 -130 24 -193 -8 -31 -69 -132 -175
-288 -218 -324 -693 -1067 -739 -1155 -8 -16 -15 -49 -15 -73 0 -41 57 -395
236 -1477 77 -463 189 -1111 279 -1610 35 -195 66 -375 70 -400 10 -73 34
-146 50 -160 13 -11 19 -11 31 1 7 8 68 132 134 274 217 467 331 704 537 1114
126 251 205 420 209 447 3 25 0 82 -10 136 -8 51 -61 392 -116 758 -55 366
-159 1048 -231 1515 -145 950 -140 883 -70 998 422 689 1195 1799 1875 2692
570 750 1490 1896 1507 1877 4 -4 9 -311 12 -682 3 -371 11 -778 17 -905 39
-853 98 -1706 123 -1782 12 -39 31 -49 71 -39 16 4 92 99 237 298 721 990
1213 1610 1910 2410 232 266 257 317 289 587 67 565 68 1064 4 1522 -65 474
-206 914 -365 1144 -68 99 -216 238 -315 297 -183 110 -436 181 -829 234 -104
15 -653 27 -750 18z"/>
<path d="M4898 4528 c-13 -11 -380 -644 -432 -746 -40 -78 -39 -94 45 -682
200 -1405 283 -2029 329 -2490 43 -426 66 -582 87 -597 23 -17 44 -16 71 3 36
25 693 1021 714 1083 l19 54 -31 201 c-42 266 -167 897 -275 1381 -155 698
-431 1770 -461 1792 -22 16 -46 16 -66 1z"/>
</g>
</svg>
